<svg width="32" height="25" viewBox="0 0 32 25" fill="none" xmlns="http://www.w3.org/2000/svg">
<path fill-rule="evenodd" clip-rule="evenodd" d="M2.23256 3H1.11628C0.820223 3 0.536294 3.11761 0.326951 3.32695C0.117608 3.53629 0 3.82022 0 4.11628V23.4651C0 24.0813 0.500093 24.5814 1.11628 24.5814H12.6943C10.816 23.5886 8.18158 23.093 6.0934 23.093H4.83721C4.14641 23.093 3.48391 22.8186 2.99544 22.3301C2.50698 21.8417 2.23256 21.1792 2.23256 20.4884V3ZM29.7674 3V20.4884C29.7674 21.1792 29.493 21.8417 29.0046 22.3301C28.5161 22.8186 27.8536 23.093 27.1628 23.093H25.9066C23.8184 23.093 21.184 23.5886 19.3057 24.5814H30.8837C31.1798 24.5814 31.4637 24.4638 31.6731 24.2544C31.8824 24.0451 32 23.7612 32 23.4651V4.11628C32 3.82022 31.8824 3.53629 31.6731 3.32695C31.4637 3.11761 31.1798 3 30.8837 3H29.7674Z" fill="white"/>
<path fill-rule="evenodd" clip-rule="evenodd" d="M15.1628 24.0893V2.17005L15.0556 2.10753C12.6519 0.735256 9.14084 0 6.37246 0H5.11628C4.82022 0 4.53629 0.117607 4.32695 0.32695C4.11761 0.536293 4 0.820223 4 1.11628V20.4651C4 21.0813 4.50009 21.5814 5.11628 21.5814H6.37246C8.78512 21.5814 11.8527 22.1976 13.9483 23.3957L15.1628 24.0893ZM17.3953 2.17005V24.0893L18.6099 23.3957C20.7055 22.1976 23.773 21.5814 26.1857 21.5814H27.4419C27.7379 21.5814 28.0218 21.4638 28.2312 21.2544C28.4405 21.0451 28.5581 20.7612 28.5581 20.4651V1.11628C28.5581 0.820223 28.4405 0.536293 28.2312 0.32695C28.0218 0.117607 27.7379 0 27.4419 0H26.1857C23.4173 0 19.9062 0.735256 17.5025 2.10753L17.3953 2.17005Z" fill="white"/>
</svg>
