<svg width="38" height="38" viewBox="0 0 38 38" fill="none" xmlns="http://www.w3.org/2000/svg">
<path d="M36.8237 19.284C36.8237 17.464 36.0694 15.8226 34.8542 14.6532C35.0728 13.9353 35.0505 13.1656 34.7906 12.4616C34.5306 11.7576 34.0474 11.158 33.4147 10.7544C33.3423 10.084 33.0498 9.45648 32.5829 8.96993C32.116 8.48338 31.5011 8.16522 30.8343 8.06517C30.5497 7.49267 30.1111 7.0109 29.5677 6.67401C29.0243 6.33713 28.3978 6.15848 27.7584 6.15817C27.4146 6.15907 27.0729 6.21173 26.7447 6.31439C26.4474 5.77574 26.0113 5.32656 25.4817 5.01356C24.952 4.70056 24.3482 4.53517 23.733 4.53459C23.2402 4.53509 22.7532 4.64105 22.3047 4.84536C21.5945 4.13951 20.6335 3.74388 19.6322 3.74512C19.1017 3.74424 18.5771 3.85564 18.0927 4.072C17.6083 4.28836 17.1753 4.60478 16.8219 5.00046C16.2289 4.63831 15.5473 4.44715 14.8524 4.44811C14.2419 4.44686 13.6401 4.59336 13.0985 4.87511C12.5569 5.15686 12.0914 5.56548 11.742 6.06611C11.2202 5.81096 10.6468 5.67906 10.066 5.68058C9.26862 5.68118 8.49175 5.93297 7.84566 6.40019C7.19956 6.86741 6.71709 7.52631 6.46675 8.28332C4.96927 8.53718 3.80543 9.7808 3.67934 11.3129C2.92812 11.587 2.27932 12.0854 1.82085 12.7406C1.36237 13.3957 1.11639 14.176 1.11621 14.9757C1.11621 16.5133 2.00332 17.8379 3.29883 18.4772C3.95551 20.5566 6.05165 22.0714 8.5456 22.0714C9.60008 22.0714 10.5843 21.8008 11.4251 21.3283C11.1185 21.8861 10.9563 22.5117 10.9531 23.1482C10.9363 25.2678 12.7156 27.0705 14.829 27.0816C15.4489 27.084 16.0606 26.9401 16.6144 26.6615C17.7721 27.8019 19.6897 30.215 19.9776 33.8259C19.9949 34.0334 20.1617 34.1941 20.3754 34.1941H21.6653C21.8901 34.1941 22.0687 34.01 22.0625 33.7801C22.0397 33.1809 22.1144 32.0171 22.8342 30.952C23.3011 31.6336 23.9726 32.1491 24.7516 32.4243C25.5307 32.6994 26.377 32.7199 27.1684 32.4827C27.9599 32.2456 28.6554 31.763 29.1548 31.1048C29.6542 30.4466 29.9315 29.6468 29.9466 28.8207C30.379 28.9936 30.8516 29.0801 31.347 29.0573C33.0571 28.9825 34.4854 27.5369 34.5317 25.8207C34.5448 25.3405 34.4544 24.8631 34.2667 24.4209C35.0618 23.8213 35.7067 23.0452 36.1504 22.1537C36.5942 21.2622 36.8247 20.2798 36.8237 19.284ZM25 18.3969H20.9562L22.9781 23.7642C23.1449 24.2077 22.5691 24.5475 22.264 24.1904L15.5772 16.491C15.243 16.1105 15.5136 15.5174 16.0207 15.5174H19.8738L17.6622 9.64243C17.6286 9.55333 17.6172 9.45741 17.629 9.36293C17.6407 9.26845 17.6753 9.17825 17.7296 9.10008C17.784 9.0219 17.8565 8.95811 17.941 8.91419C18.0254 8.87027 18.1193 8.84753 18.2145 8.84794H19.442C19.6372 8.84794 19.8213 8.94614 19.9313 9.10738L25.4888 17.4813C25.7538 17.873 25.472 18.3963 24.9995 18.3963L25 18.3969Z" fill="#FF9C06"/>
</svg>
