<svg width="50" height="50" viewBox="0 0 50 50" fill="none" xmlns="http://www.w3.org/2000/svg">
<path d="M26.56 29.152H24.016V28.744C24.016 28.072 24.176 27.456 24.496 26.896C24.816 26.336 25.368 25.736 26.152 25.096C27.016 24.376 27.6 23.768 27.904 23.272C28.224 22.776 28.384 22.184 28.384 21.496C28.384 20.776 28.112 20.2 27.568 19.768C27.04 19.336 26.344 19.12 25.48 19.12C24.648 19.12 23.952 19.352 23.392 19.816C22.832 20.28 22.552 20.928 22.552 21.76C22.552 22.032 22.592 22.368 22.672 22.768L20.392 23.224C20.2 22.776 20.104 22.224 20.104 21.568C20.104 20.304 20.6 19.208 21.592 18.28C22.6 17.336 23.888 16.864 25.456 16.864C27.12 16.864 28.432 17.28 29.392 18.112C30.352 18.944 30.832 20.024 30.832 21.352C30.832 22.344 30.616 23.2 30.184 23.92C29.768 24.624 28.968 25.48 27.784 26.488C27.32 26.872 27 27.264 26.824 27.664C26.648 28.064 26.56 28.56 26.56 29.152ZM23.944 34V31.144H26.632V34H23.944Z" fill="#FF9C06"/>
<circle cx="25" cy="25" r="24" stroke="#4E3C1D" stroke-width="2"/>
</svg>
