<svg width="31" height="23" viewBox="0 0 31 23" fill="none" xmlns="http://www.w3.org/2000/svg">
<path d="M15.1996 15.2845L14.5324 15.0342L7.59961 12.4346V15.1552C7.59961 17.2541 11.0022 18.9552 15.1996 18.9552C19.397 18.9552 22.7996 17.2541 22.7996 15.1552V12.4346L15.8668 15.0342L15.1996 15.2845Z" fill="white"/>
<path d="M28.4998 8.26778L29.9728 7.71546C30.0983 7.66837 30.2064 7.5841 30.2828 7.47391C30.3591 7.36372 30.4 7.23286 30.4 7.09882V6.1113C30.4 5.83706 30.2298 5.5913 29.9728 5.49498L15.431 0.0418576C15.2821 -0.0139526 15.1179 -0.0139526 14.969 0.0418576L0.4272 5.49466C0.301647 5.54177 0.193468 5.62609 0.117127 5.73634C0.0407869 5.84659 -7.67785e-05 5.97752 1.083e-07 6.11162V7.09914C1.083e-07 7.3737 0.17024 7.61946 0.4272 7.71578L15.2 13.2553L26.6 8.9801V14.4687C26.0346 14.798 25.6499 15.4038 25.6499 16.1052C25.6499 16.8067 26.0346 17.4124 26.6 17.7414L24.913 21.3497C24.8438 21.4969 24.8316 21.6645 24.8785 21.8202C24.9255 21.9759 25.0284 22.1088 25.1674 22.1932C25.744 22.5433 26.6125 22.7551 27.5501 22.7551C28.4877 22.7551 29.3558 22.5433 29.9328 22.1932C30.0717 22.1087 30.1745 21.9758 30.2214 21.8201C30.2683 21.6644 30.256 21.4969 30.1869 21.3497L28.4998 17.7414C29.0653 17.4124 29.4502 16.8067 29.4502 16.1052C29.4502 15.4038 29.0653 14.798 28.4998 14.4687V8.26778Z" fill="white"/>
</svg>
