<svg width="19" height="27" viewBox="0 0 19 27" fill="none" xmlns="http://www.w3.org/2000/svg">
<path d="M6.4932 9.23489H0C0.122977 6.34203 1.02071 4.07967 2.6932 2.4478C4.3657 0.815934 6.75146 0 9.85048 0C12.3592 0 14.5113 0.667583 16.3068 2.00275C18.1023 3.33791 19 5.21703 19 7.64011C19 8.95055 18.7663 10.0385 18.299 10.9038C17.8563 11.7692 17.1307 12.5234 16.1223 13.1662C15.9502 13.2651 15.655 13.4505 15.2369 13.7225C14.8434 13.9698 14.5851 14.1305 14.4621 14.2047C14.3638 14.2788 14.167 14.4148 13.8718 14.6126C13.5767 14.8104 13.3922 14.9464 13.3184 15.0206C13.2693 15.0948 13.1463 15.2308 12.9495 15.4286C12.7528 15.6016 12.6298 15.75 12.5806 15.8736C12.556 15.9725 12.4822 16.1209 12.3592 16.3187C12.2608 16.4918 12.1994 16.6772 12.1748 16.875C12.1748 17.0481 12.1625 17.2582 12.1379 17.5055C12.1133 17.728 12.101 17.9876 12.101 18.2843H6.27184V17.3571C6.27184 15.75 6.4932 14.5261 6.93592 13.6854C7.40324 12.8448 8.31327 11.967 9.66602 11.0522C10.7482 10.3352 11.4492 9.76648 11.7689 9.34615C12.0887 8.92582 12.2485 8.39423 12.2485 7.75137C12.2485 6.98489 12.0149 6.40385 11.5476 6.00824C11.1049 5.58791 10.4654 5.37775 9.62912 5.37775C7.53851 5.37775 6.4932 6.66346 6.4932 9.23489ZM12.433 20.3242V27H5.79223V20.3242H12.433Z" fill="#FF9C06"/>
</svg>
