<svg width="36" height="36" viewBox="0 0 36 36" fill="none" xmlns="http://www.w3.org/2000/svg">
<circle opacity="0.2" cx="17.7185" cy="17.7195" r="17.0125" stroke="white"/>
<path d="M17.7209 18.0365C19.2964 18.0365 20.5736 16.7593 20.5736 15.1838C20.5736 13.6083 19.2964 12.3311 17.7209 12.3311C16.1454 12.3311 14.8682 13.6083 14.8682 15.1838C14.8682 16.7593 16.1454 18.0365 17.7209 18.0365Z" fill="#FF9C06"/>
<path fill-rule="evenodd" clip-rule="evenodd" d="M22.475 24.3773C22.8252 24.3773 23.1089 24.0936 23.1089 23.7434C23.1089 23.5687 23.1089 23.4264 23.1089 23.4264C23.1089 23.4264 23.1089 23.4264 23.1089 23.4264C23.1089 22.1655 22.6081 20.9559 21.7165 20.0643C20.8249 19.1727 19.6153 18.6719 18.3544 18.6719H17.0865C15.8256 18.6719 14.6161 19.1727 13.7245 20.0643C12.8328 20.9559 12.332 22.1655 12.332 23.4264V23.7434C12.332 24.0936 12.6157 24.3773 12.966 24.3773H22.475Z" fill="#FF9C06"/>
</svg>
