<svg width="20" height="23" viewBox="0 0 20 23" fill="none" xmlns="http://www.w3.org/2000/svg">
<path d="M19.0692 16.7157L18.6781 16.142C16.6702 13.3518 13.5409 11.735 10.0727 11.735C6.60449 11.735 3.50134 13.3518 1.46734 16.142L1.05011 16.7157C0.267807 17.7849 0.163499 19.1409 0.789344 20.3143C1.41519 21.4878 2.53649 22.1919 3.86642 22.1919H16.2529C17.5828 22.1919 18.7302 21.4878 19.33 20.3143C19.9558 19.1409 19.8515 17.7849 19.0692 16.7157Z" fill="#FF9C06"/>
<path d="M10.0728 10.4307C12.9532 10.4307 15.2882 8.09575 15.2882 5.21537C15.2882 2.335 12.9532 0 10.0728 0C7.19242 0 4.85742 2.335 4.85742 5.21537C4.85742 8.09575 7.19242 10.4307 10.0728 10.4307Z" fill="#FF9C06"/>
</svg>
