<svg width="32" height="34" viewBox="0 0 32 34" fill="none" xmlns="http://www.w3.org/2000/svg">
<path d="M21.8023 17.4809C23.5341 14.6097 24.5032 10.6233 25.0358 7.31195C25.3008 5.66414 25.4555 4.1988 25.5438 3.14576C25.588 2.61945 25.6156 2.19666 25.6321 1.90619C25.633 1.89015 25.6338 1.87452 25.6347 1.85929C25.4975 1.82449 25.3259 1.78194 25.1239 1.73367C24.5503 1.59665 23.7315 1.41367 22.7537 1.23064C20.7947 0.863926 18.2129 0.5 15.692 0.5C13.1711 0.5 10.5893 0.863926 8.63027 1.23064C7.6525 1.41367 6.83372 1.59665 6.26015 1.73367C6.05888 1.78175 5.88789 1.82416 5.75093 1.85889C5.75123 1.86386 5.75154 1.86889 5.75184 1.87395C5.7683 2.14546 5.79583 2.54212 5.83996 3.03944C5.92825 4.03439 6.08286 5.43057 6.34789 7.03257C6.87948 10.2458 7.8492 14.2481 9.59421 17.5029C10.7095 19.5831 13.1005 20.6433 15.6032 20.6278C18.1059 20.6123 20.5726 19.5197 21.8023 17.4809Z" fill="#FF9C06" stroke="#FF9C06"/>
<path d="M15.6914 15.6924V26.8078" stroke="#FF9C06" stroke-width="3"/>
<path d="M26.2017 12.541C27.6744 11.3367 28.9643 9.79317 29.3701 8.62342L26.2017 12.541ZM26.2017 12.541C25.4781 13.1327 24.7519 13.6078 24.1283 13.8966M26.2017 12.541L24.1283 13.8966M24.1283 13.8966C23.8165 14.041 23.5498 14.1297 23.3354 14.1695M24.1283 13.8966L23.3354 14.1695M23.3354 14.1695C23.1156 14.2104 22.9979 14.1914 22.9505 14.1749M23.3354 14.1695L22.9505 14.1749M22.9505 14.1749C22.43 13.9944 21.9694 13.4543 21.7538 12.5114M22.9505 14.1749L21.7538 12.5114M21.7538 12.5114C21.541 11.5806 21.6039 10.3692 22.0386 9.11605M21.7538 12.5114L22.0386 9.11605M22.0386 9.11605C22.5108 7.75437 23.0347 6.44679 23.7265 5.48468M22.0386 9.11605L23.7265 5.48468M23.7265 5.48468C24.4057 4.54015 25.1756 4.0206 26.1553 4.02082M23.7265 5.48468L26.1553 4.02082M26.1553 4.02082C27.2632 4.02108 28.3158 4.48935 28.9592 5.27207M26.1553 4.02082L28.9592 5.27207M28.9592 5.27207C29.5803 6.02757 29.8808 7.14878 29.3702 8.62313L28.9592 5.27207Z" stroke="#FF9C06" stroke-width="1.5"/>
<path d="M5.27296 12.4179C3.80027 11.2136 2.51038 9.67007 2.10453 8.50023L5.27296 12.4179ZM5.27296 12.4179C5.99655 13.0096 6.72268 13.4847 7.34631 13.7734M5.27296 12.4179L7.34631 13.7734M7.34631 13.7734C7.65809 13.9178 7.92482 14.0065 8.13923 14.0464M7.34631 13.7734L8.13923 14.0464M8.13923 14.0464C8.35898 14.0872 8.47671 14.0682 8.52414 14.0518M8.13923 14.0464L8.52414 14.0518M8.52414 14.0518C9.04462 13.8713 9.50526 13.3312 9.72083 12.3883M8.52414 14.0518L9.72083 12.3883M9.72083 12.3883C9.93363 11.4576 9.87069 10.2461 9.43604 8.99287M9.72083 12.3883L9.43604 8.99287M9.43604 8.99287C8.96375 7.6311 8.43989 6.32353 7.74806 5.36145M9.43604 8.99287L7.74806 5.36145M7.74806 5.36145C7.06887 4.41695 6.29903 3.89742 5.31927 3.89762M7.74806 5.36145L5.31927 3.89762M5.31927 3.89762C4.21134 3.89786 3.15876 4.36609 2.51532 5.14878M5.31927 3.89762L2.51532 5.14878M2.51532 5.14878C1.89426 5.90425 1.5938 7.02547 2.10443 8.49994L2.51532 5.14878Z" stroke="#FF9C06" stroke-width="1.5"/>
<path d="M11.4609 24.0381H19.9225C20.1986 24.0381 20.4225 24.2619 20.4225 24.5381V28.2689H10.9609V24.5381C10.9609 24.2619 11.1848 24.0381 11.4609 24.0381Z" fill="#FF9C06" stroke="#FF9C06"/>
<path d="M10.1533 26.6543H21.2302C21.5064 26.6543 21.7302 26.8782 21.7302 27.1543V28.2697H9.65332V27.1543C9.65332 26.8782 9.87718 26.6543 10.1533 26.6543Z" fill="#FF9C06" stroke="#FF9C06"/>
</svg>
